<svg xmlns:mydata="http://www.w3.org/2000/svg" mydata:contrastcolor="E03E52" mydata:template="Contrast" mydata:presentation="2.5" mydata:layouttype="undefined" mydata:specialfontid="undefined" mydata:id1="293" mydata:id2="126" mydata:companyname="parkingwalla" mydata:companytagline="" version="1.1" xmlns="http://www.w3.org/2000/svg" xmlns:xlink="http://www.w3.org/1999/xlink" viewBox="0 0 550 470" width="550"  height="470" ><g fill="#101820" fill-rule="none" stroke="none" stroke-width="1" stroke-linecap="butt" stroke-linejoin="miter" stroke-miterlimit="10" stroke-dasharray="" stroke-dashoffset="0" font-family="none" font-weight="none" font-size="none" text-anchor="none" style="mix-blend-mode: normal"><g data-paper-data="{&quot;isGlobalGroup&quot;:true,&quot;bounds&quot;:{&quot;x&quot;:65,&quot;y&quot;:147.70966116463737,&quot;width&quot;:420,&quot;height&quot;:174.58067767072524}}" fill="#101820"><g data-paper-data="{&quot;isPrimaryText&quot;:true}" fill-rule="nonzero" fill="#101820"><path d="M74.32373,289.70189c0.17969,2.67293 0.28077,4.07678 0.30323,4.21155c0.11231,0.94339 0.26954,1.47123 0.47169,1.58354c0.17969,0.08985 0.83108,0.05615 1.95416,-0.10108c1.14554,-0.15723 2.49324,-0.146 4.04308,0.03369c1.50493,0.17969 2.628,0.02246 3.36924,-0.47169c0.76369,-0.53908 1.26908,-1.52739 1.51616,-2.96493c0.67385,-3.88585 -0.38185,-7.30001 -3.16708,-10.24248c-2.02154,-2.13385 -3.88585,-2.044 -5.59293,0.26954c-2.26862,3.03231 -3.23447,5.59293 -2.89754,7.68186zM65.26049,315.84717c0.11231,-2.35847 0.16846,-3.59385 0.16846,-3.70616c0.33692,-3.93078 0.31446,-8.25463 -0.06738,-12.97156c-0.06738,-0.83108 -0.13477,-2.01031 -0.20215,-3.5377c-0.04492,-1.61723 -0.08985,-2.79647 -0.13477,-3.5377c-0.15723,-2.06647 0.438,-3.76231 1.7857,-5.08755c0.89846,-0.876 2.90877,-3.07724 6.03093,-6.6037c2.42585,-2.74031 4.53724,-4.81801 6.33417,-6.23309c1.21293,-0.98831 2.90877,-1.98785 5.08755,-2.99862c2.02154,-0.92092 3.86339,-0.60646 5.52555,0.94339c1.46,1.34769 2.42585,2.44831 2.89754,3.30185c1.01077,1.86431 1.86431,3.90831 2.56062,6.13201c0.67385,2.13385 0.31446,4.78432 -1.07816,7.9514c-2.29108,5.30093 -6.30047,9.52371 -12.02818,12.66833c-1.52739,0.83108 -3.5377,1.43754 -6.03093,1.81939c-1.01077,0.15723 -1.66216,0.35939 -1.95416,0.60646c-0.26954,0.26954 -0.48292,0.876 -0.64015,1.81939c-0.15723,0.96585 -0.38185,2.49324 -0.67385,4.58216c-0.292,1.99908 -0.52785,3.5377 -0.70754,4.61585c-0.11231,0.67385 -0.37062,1.61723 -0.77492,2.83016c-0.49415,1.59477 -1.90923,2.86385 -4.24524,3.80724c-0.15723,0.06738 -0.38185,0.03369 -0.67385,-0.10108c-0.292,-0.13477 -0.46046,-0.28077 -0.50539,-0.438c-0.20215,-0.62892 -0.33692,-1.47123 -0.40431,-2.52693c-0.02246,-0.17969 -0.03369,-1.29154 -0.03369,-3.33554c-0.04492,0 -0.12354,0 -0.23585,0z" data-paper-data="{&quot;glyphName&quot;:&quot;P&quot;,&quot;glyphIndex&quot;:0,&quot;firstGlyphOfWord&quot;:true,&quot;word&quot;:1}" fill="#101820"></path><path d="M110.10503,294.5199c-0.20215,-0.74123 -0.31446,-1.13431 -0.33692,-1.17923c-0.22462,-0.44923 -0.44923,-0.69631 -0.67385,-0.74123c-0.33692,-0.06738 -0.61769,0.08985 -0.84231,0.47169c-0.47169,0.78616 -0.88723,1.62846 -1.24662,2.52693c-0.02246,0.06738 0.04492,0.20215 0.20215,0.40431c0.15723,0.17969 0.25831,0.26954 0.30323,0.26954c0.85354,-0.20215 1.50493,-0.44923 1.95416,-0.74123c0.04492,-0.02246 0.25831,-0.35939 0.64015,-1.01077zM93.49469,316.95902c0.17969,-3.48154 0.95462,-6.85078 2.32477,-10.10771c4.60462,-10.93879 7.74924,-18.37357 9.43386,-22.30435c1.12308,-2.60554 3.30185,-5.22232 6.53632,-7.85032c1.25785,-0.98831 2.31354,-0.70754 3.16708,0.84231c1.07816,1.95416 2.8077,6.10955 5.18862,12.46618c0.31446,0.876 0.50539,1.43754 0.57277,1.68462c0.26954,1.25785 1.04446,1.81939 2.32477,1.68462c0.876,-0.08985 3.3917,0.51662 7.54709,1.81939c0.20215,0.06738 0.51662,0.23585 0.94339,0.50539c0.89846,0.584 1.07816,1.30277 0.53908,2.15631c-1.23539,1.95416 -2.83016,3.31308 -4.78432,4.07678c-0.15723,0.06738 -0.38185,0.13477 -0.67385,0.20215c-0.33692,0.06738 -0.57277,0.12354 -0.70754,0.16846c-0.60646,0.20215 -0.97708,0.44923 -1.11185,0.74123c-0.15723,0.31446 -0.11231,0.78616 0.13477,1.41508c0.26954,0.71877 0.65139,1.65093 1.14554,2.79647c0.60646,1.39262 0.99954,2.32477 1.17923,2.79647c1.07816,2.628 1.80816,4.50355 2.19,5.62663c0.584,1.70708 0.10108,3.17831 -1.44877,4.4137c-0.62892,0.51662 -0.99954,0.79739 -1.11185,0.84231c-2.24616,0.89846 -3.58262,1.34769 -4.00939,1.34769c-0.56154,0 -1.04446,-0.34815 -1.44877,-1.04446c-0.04492,-0.08985 -0.19092,-0.40431 -0.438,-0.94339c-0.20215,-0.38185 -0.37062,-0.66262 -0.50539,-0.84231c-1.30277,-1.70708 -2.63924,-4.22278 -4.00939,-7.54709c-0.33692,-0.85354 -0.81985,-2.06647 -1.44877,-3.63878c-0.65139,-1.66216 -1.13431,-2.86385 -1.44877,-3.60508c-0.31446,-0.78616 -0.65139,-1.28031 -1.01077,-1.48246c-0.35939,-0.22462 -0.92092,-0.25831 -1.68462,-0.10108c-0.78616,0.13477 -1.88677,0.35939 -3.30185,0.67385c-1.52739,0.33692 -2.63924,0.57277 -3.33554,0.70754c-1.9317,0.38185 -3.22324,1.62846 -3.87462,3.73985c-0.04492,0.15723 -0.57277,1.98785 -1.58354,5.49186c-0.40431,1.41508 -0.62892,2.20123 -0.67385,2.35847c-0.42677,1.168 -1.25785,1.96539 -2.49324,2.39216c-1.61723,0.56154 -2.32477,0.03369 -2.12262,-1.58354c0,-0.02246 0,0.01123 0,0.10108z" data-paper-data="{&quot;glyphName&quot;:&quot;A&quot;,&quot;glyphIndex&quot;:1,&quot;word&quot;:1}" fill="#101820"></path><path d="M146.49278,291.62236c4.2677,-0.22462 7.69309,-1.28031 10.27617,-3.16708c2.29108,-1.66216 2.628,-3.65001 1.01077,-5.96355c-0.89846,-1.28031 -2.15631,-2.11139 -3.77355,-2.49324c-1.6397,-0.38185 -3.26816,-0.21338 -4.88539,0.50539c-2.65047,1.19046 -4.59339,2.8077 -5.82878,4.8517c-1.46,2.40339 -2.08893,4.15539 -1.88677,5.25601c0.67385,0.40431 2.3697,0.74123 5.08755,1.01077zM132.17353,307.99685c0.98831,-6.26678 1.54985,-9.69217 1.68462,-10.27617c0.69631,-3.12216 0.99954,-5.53678 0.90969,-7.24386c-0.02246,-0.24708 -0.01123,-0.76369 0.03369,-1.54985c0.02246,-0.65139 0.01123,-1.168 -0.03369,-1.54985c-0.26954,-1.752 -0.08985,-3.66124 0.53908,-5.7277c0.04492,-0.15723 0.73,-1.95416 2.05523,-5.39078c0.11231,-0.33692 0.46046,-0.70754 1.04446,-1.11185c0.47169,-0.33692 0.93216,-0.25831 1.38139,0.23585c0.24708,0.26954 0.38185,0.47169 0.40431,0.60646c0.06738,0.22462 0.26954,1.08939 0.60646,2.59431c0.51662,-0.04492 0.94339,-0.30323 1.28031,-0.77492c0.08985,-0.13477 0.22462,-0.35939 0.40431,-0.67385c0.15723,-0.26954 0.292,-0.47169 0.40431,-0.60646c1.30277,-1.752 3.30185,-3.56016 5.99724,-5.42447c1.77446,-1.25785 3.9757,-1.88677 6.6037,-1.88677c3.14462,0 5.57047,1.44877 7.27755,4.34632c2.60554,4.38001 2.88631,8.81617 0.84231,13.30849c-2.29108,5.05386 -4.52601,8.64771 -6.70478,10.78156c-0.51662,0.47169 -0.74123,0.88723 -0.67385,1.24662c0.04492,0.35939 0.38185,0.76369 1.01077,1.21293c3.86339,2.89754 5.91863,4.44739 6.1657,4.64955c1.01077,0.83108 1.83062,1.80816 2.45954,2.93124c1.50493,2.58308 2.05523,4.68324 1.65093,6.30047c-0.33692,1.32523 -1.59477,3.04354 -3.77355,5.15493c-1.03323,0.98831 -2.16754,0.94339 -3.40293,-0.13477c-2.58308,-2.2237 -4.25647,-3.61631 -5.02016,-4.17785c0.13477,0.11231 -1.314,-0.71877 -4.34632,-2.49324c-0.96585,-0.53908 -2.47077,-1.41508 -4.51478,-2.628c-1.95416,-1.14554 -3.45908,-2.01031 -4.51478,-2.59431c-0.62892,-0.35939 -0.99954,-0.17969 -1.11185,0.53908c-0.17969,1.03323 -0.25831,1.79693 -0.23585,2.29108c0.02246,2.65047 -1.42631,6.44647 -4.34632,11.38802c-0.292,0.49415 -0.68508,0.80862 -1.17923,0.94339c-0.26954,0.04492 -0.70754,-0.10108 -1.314,-0.438c-0.13477,-0.06738 -0.21338,-0.30323 -0.23585,-0.70754c-0.47169,-4.64955 -0.81985,-8.2434 -1.04446,-10.78156c0,-0.06738 0,-0.84231 0,-2.32477c-0.06738,0 -0.16846,-0.01123 -0.30323,-0.03369z" data-paper-data="{&quot;glyphName&quot;:&quot;R&quot;,&quot;glyphIndex&quot;:2,&quot;word&quot;:1}" fill="#101820"></path><path d="M168.69606,313.0507c1.168,-11.79233 1.898,-19.19342 2.19,-22.20327c0.02246,-0.13477 0.08985,-0.47169 0.20215,-1.01077c0.08985,-0.42677 0.12354,-0.76369 0.10108,-1.01077c-0.24708,-2.69539 0.78616,-5.44693 3.0997,-8.25463c0.26954,-0.33692 0.584,-0.78616 0.94339,-1.34769c0.47169,-0.74123 0.77492,-1.21293 0.90969,-1.41508c0.62892,-0.876 1.05569,-1.39262 1.28031,-1.54985c0.876,-0.56154 1.61723,-0.79739 2.2237,-0.70754c0.78616,0.13477 1.17923,0.78616 1.17923,1.95416c0,0.56154 -0.04492,1.39262 -0.13477,2.49324c-0.08985,0.876 -0.22462,2.24616 -0.40431,4.11047c-0.15723,1.79693 -0.28077,3.16708 -0.37062,4.11047c-0.06738,0.89846 -0.11231,1.71831 -0.13477,2.45954c0,0.31446 0.12354,0.55031 0.37062,0.70754c0.22462,0.15723 0.47169,0.17969 0.74123,0.06738c0.17969,-0.08985 0.42677,-0.22462 0.74123,-0.40431c0.33692,-0.17969 0.57277,-0.31446 0.70754,-0.40431c7.97386,-4.02062 12.15171,-6.13201 12.53356,-6.33417c0.26954,-0.13477 1.92046,-1.11185 4.95278,-2.93124c0.92092,-0.53908 1.68462,-0.584 2.29108,-0.13477c0.876,0.62892 1.10062,1.49369 0.67385,2.59431c-0.15723,0.44923 -0.26954,0.69631 -0.33692,0.74123c-0.24708,0.292 -1.44877,1.7857 -3.60508,4.48108c-1.43754,1.84185 -2.81893,3.17831 -4.14416,4.00939c-0.35939,0.20215 -0.84231,0.44923 -1.44877,0.74123c-0.76369,0.38185 -1.25785,0.62892 -1.48246,0.74123c-1.9317,1.03323 -3.35801,1.84185 -4.27893,2.42585c-0.11231,0.06738 -0.17969,0.23585 -0.20215,0.50539c-0.04492,0.26954 -0.02246,0.44923 0.06738,0.53908c0.80862,0.92092 1.59477,1.68462 2.35847,2.29108c0.62892,0.47169 2.6617,2.01031 6.09832,4.61585c2.47077,1.88677 4.48108,3.45908 6.03093,4.71693c1.46,1.19046 3.32431,3.00985 5.59293,5.45816c0.92092,0.98831 0.93216,2.08893 0.03369,3.30185c-1.19046,1.61723 -2.84139,2.74031 -4.95278,3.36924c-2.11139,0.62892 -4.16662,0.59523 -6.1657,-0.10108c-2.336,-0.80862 -4.57093,-2.14508 -6.70478,-4.00939c-0.44923,-0.40431 -3.89708,-2.68416 -10.34356,-6.83955c-0.51662,-0.33692 -0.95462,-0.39308 -1.314,-0.16846c-0.35939,0.22462 -0.56154,0.66262 -0.60646,1.314c-0.20215,2.8077 -0.28077,4.59339 -0.23585,5.35709c0.06738,1.66216 -0.75246,2.96493 -2.45954,3.90831c-0.71877,0.40431 -1.08939,0.60646 -1.11185,0.60646c-2.06647,0.92092 -3.43662,0.31446 -4.11047,-1.81939c-0.292,-0.94339 -0.44923,-1.606 -0.47169,-1.98785c0,-0.35939 0,-2.01031 0,-4.95278c-0.04492,-0.02246 -0.10108,-0.03369 -0.16846,-0.03369c-0.06738,0 -0.11231,0 -0.13477,0z" data-paper-data="{&quot;glyphName&quot;:&quot;K&quot;,&quot;glyphIndex&quot;:3,&quot;word&quot;:1}" fill="#101820"></path><path d="M210.54198,314.02778c0.26954,-6.53632 0.40431,-10.02909 0.40431,-10.47833c0.04492,-1.6397 0.12354,-5.8737 0.23585,-12.70202c0.02246,-1.19046 0.01123,-2.17877 -0.03369,-2.96493c-0.17969,-4.51478 1.68462,-9.43386 5.59293,-14.75726c0.22462,-0.31446 0.42677,-0.50539 0.60646,-0.57277c1.05569,-0.42677 1.68462,-0.60646 1.88677,-0.53908c0.42677,0.15723 0.80862,0.68508 1.14554,1.58354c0.04492,0.13477 0.04492,0.69631 0,1.68462c-0.22462,4.5597 -0.74123,15.56587 -1.54985,33.01852c0,0.17969 0,0.31446 0,0.40431c0.02246,3.61631 0.76369,6.09832 2.2237,7.44601c0.26954,0.26954 0.42677,0.584 0.47169,0.94339c0.02246,0.38185 -0.11231,0.70754 -0.40431,0.97708c-2.15631,2.08893 -4.1217,3.42539 -5.89616,4.00939c-1.70708,0.56154 -2.79647,-0.02246 -3.26816,-1.752c-0.08985,-0.35939 -0.56154,-2.45954 -1.41508,-6.30047z" data-paper-data="{&quot;glyphName&quot;:&quot;I&quot;,&quot;glyphIndex&quot;:4,&quot;word&quot;:1}" fill="#101820"></path><path d="M254.71267,296.23821c-0.31446,-6.24432 -0.48292,-9.79325 -0.50539,-10.64679c-0.02246,-1.03323 0.28077,-2.15631 0.90969,-3.36924c0.60646,-1.21293 1.606,-2.83016 2.99862,-4.8517c0.35939,-0.51662 0.83108,-0.80862 1.41508,-0.876c0.51662,-0.06738 0.86477,0.33692 1.04446,1.21293c0.38185,1.72954 0.584,2.65047 0.60646,2.76277c0.33692,5.1437 0.57277,9.28786 0.70754,12.43248c0.26954,6.17693 -1.58354,12.57848 -5.55924,19.20465c-1.79693,2.98739 -3.75108,5.52555 -5.86247,7.61448c-0.89846,0.89846 -1.72954,1.53862 -2.49324,1.92046c-2.20123,1.05569 -4.07678,0.81985 -5.62663,-0.70754c-1.84185,-1.79693 -3.13339,-3.32431 -3.87462,-4.58216c-0.69631,-1.19046 -1.7857,-3.56016 -3.26816,-7.10909c-0.56154,-1.39262 -1.29154,-3.21201 -2.19,-5.45816c-1.14554,-2.87508 -1.87554,-4.69447 -2.19,-5.45816c-0.08985,-0.22462 -0.25831,-0.34815 -0.50539,-0.37062c-0.24708,0 -0.39308,0.13477 -0.438,0.40431c-0.42677,2.92001 -0.67385,4.80678 -0.74123,5.66032c-0.15723,2.26862 -0.20215,4.16662 -0.13477,5.69401c0.11231,1.66216 -0.51662,3.90831 -1.88677,6.73847c-0.15723,0.31446 -0.44923,0.68508 -0.876,1.11185c-0.51662,0.56154 -1.05569,0.78616 -1.61723,0.67385c-0.56154,-0.11231 -0.93216,-0.52785 -1.11185,-1.24662c-0.56154,-2.20123 -0.78616,-3.95324 -0.67385,-5.25601c0.11231,-1.43754 0.73,-7.44601 1.85308,-18.02542c0.47169,-4.46985 1.83062,-8.61402 4.07678,-12.43248c0.31446,-0.56154 0.49415,-0.86477 0.53908,-0.90969c0.83108,-0.67385 1.39262,-1.04446 1.68462,-1.11185c0.69631,-0.11231 1.17923,0.32569 1.44877,1.314c0,0 0.76369,1.32523 2.29108,3.9757c1.57231,2.78524 3.02108,5.63786 4.34632,8.55786c0.04492,0.13477 1.25785,3.0997 3.63878,8.89478c1.07816,2.69539 2.53816,5.13247 4.38001,7.31124c0.92092,1.05569 2.05523,1.57231 3.40293,1.54985c1.61723,-0.02246 2.65047,-0.67385 3.0997,-1.95416c0.584,-1.6397 0.90969,-3.13339 0.97708,-4.48108c0.02246,-0.51662 0.03369,-3.2457 0.03369,-8.18725z" data-paper-data="{&quot;glyphName&quot;:&quot;N&quot;,&quot;glyphIndex&quot;:5,&quot;word&quot;:1}" fill="#101820"></path><path d="M287.59642,289.33128c3.43662,0 5.30093,0.01123 5.59293,0.03369c1.32523,0.11231 3.02108,0.41554 5.08755,0.90969c1.01077,0.24708 1.606,0.95462 1.7857,2.12262c0.26954,1.70708 0.02246,3.31308 -0.74123,4.81801c-0.78616,1.57231 -1.95416,2.72908 -3.50401,3.47031c-1.30277,0.62892 -2.14508,1.58354 -2.52693,2.86385c-0.876,3.00985 -2.12262,6.10955 -3.73985,9.29909c-1.34769,2.628 -3.12216,4.63832 -5.32339,6.03093c-4.06555,2.56062 -7.67063,3.67247 -10.81525,3.33554c-2.628,-0.292 -4.72816,-1.42631 -6.30047,-3.40293c-3.00985,-3.79601 -4.52601,-7.24386 -4.54847,-10.34356c-0.02246,-2.40339 0.19092,-4.61585 0.64015,-6.6374c1.79693,-8.33325 4.50355,-15.20649 8.11986,-20.61973c3.03231,-4.53724 6.48017,-7.63694 10.34356,-9.29909c1.41508,-0.60646 3.23447,-0.76369 5.45816,-0.47169c0.876,0.13477 1.34769,0.64015 1.41508,1.51616c0.06738,1.03323 -0.20215,1.97662 -0.80862,2.83016c-0.60646,0.876 -1.39262,1.38139 -2.35847,1.51616c-3.34678,0.44923 -6.54755,2.40339 -9.60232,5.86247c-2.83016,3.23447 -4.84047,6.3454 -6.03093,9.33279c-1.95416,5.00893 -1.84185,9.69217 0.33692,14.04972c1.90923,3.79601 4.94155,5.27847 9.09694,4.44739c1.88677,-0.38185 3.80724,-1.22416 5.76139,-2.52693c0.584,-0.38185 0.90969,-0.75246 0.97708,-1.11185c0.06738,-0.35939 -0.11231,-0.79739 -0.53908,-1.314c-1.88677,-2.26862 -3.95324,-3.51524 -6.1994,-3.73985c-2.44831,-0.24708 -3.88585,-0.78616 -4.31262,-1.61723c-0.35939,-0.76369 0,-2.17877 1.07816,-4.24524c0.17969,-0.35939 0.37062,-0.86477 0.57277,-1.51616c0.24708,-0.83108 0.41554,-1.37016 0.50539,-1.61723c0.51662,-1.37016 0.96585,-2.3697 1.34769,-2.99862c0.56154,-0.92092 1.41508,-1.32523 2.56062,-1.21293c1.30277,0.08985 2.41462,0.15723 3.33554,0.20215c0.15723,0 1.26908,0 3.33554,0z" data-paper-data="{&quot;glyphName&quot;:&quot;G&quot;,&quot;glyphIndex&quot;:6,&quot;word&quot;:1}" fill="#101820"></path><path d="M299.69198,288.25312c0.31446,-1.39262 0.49415,-2.12262 0.53908,-2.19c1.48246,-2.42585 2.84139,-4.46985 4.07678,-6.13201c0.53908,-0.74123 1.14554,-1.04446 1.81939,-0.90969c0.69631,0.13477 1.168,0.64015 1.41508,1.51616c0.292,0.96585 1.10062,4.09924 2.42585,9.40017c0.20215,0.89846 0.90969,3.79601 2.12262,8.69263c0.876,3.52647 1.59477,6.41278 2.15631,8.65894c0.22462,0.94339 0.52785,1.79693 0.90969,2.56062c0.292,0.584 0.65139,0.89846 1.07816,0.94339c0.40431,0.06738 0.77492,-0.19092 1.11185,-0.77492c0.96585,-1.66216 1.57231,-3.62754 1.81939,-5.89616c0.74123,-7.09786 1.11185,-10.5794 1.11185,-10.44463c0.11231,-1.57231 0.50539,-2.90877 1.17923,-4.00939c1.77446,-2.85262 3.0997,-4.93032 3.9757,-6.23309c0.292,-0.42677 0.79739,-0.80862 1.51616,-1.14554c0.49415,-0.24708 0.99954,-0.28077 1.51616,-0.10108c0.53908,0.20215 0.89846,0.55031 1.07816,1.04446c0.83108,2.17877 1.58354,4.38001 2.25739,6.6037c0.51662,1.68462 1.29154,4.29016 2.32477,7.81663c0.98831,3.43662 1.752,6.0534 2.29108,7.85032c0.20215,0.62892 0.65139,1.53862 1.34769,2.72908c0.04492,0.06738 0.21338,0.10108 0.50539,0.10108c0.26954,-0.02246 0.42677,-0.06738 0.47169,-0.13477c0.40431,-0.80862 0.66262,-1.52739 0.77492,-2.15631c0.15723,-0.85354 0.42677,-2.38093 0.80862,-4.58216c0.33692,-1.95416 0.60646,-3.49278 0.80862,-4.61585c0.49415,-2.5157 1.06692,-4.89662 1.71831,-7.14278c1.10062,-3.93078 3.2457,-7.56955 6.43524,-10.91633c1.10062,-1.14554 2.10016,-1.54985 2.99862,-1.21293c1.07816,0.40431 1.29154,1.54985 0.64015,3.43662c-1.752,5.05386 -2.89754,9.56863 -3.43662,13.54433c-0.20215,1.46 -0.39308,3.00985 -0.57277,4.64955c-0.74123,6.69355 -3.47031,12.27525 -8.18725,16.74511c-1.43754,1.37016 -2.59431,2.40339 -3.47031,3.0997c-2.65047,2.13385 -5.1437,1.92046 -7.47971,-0.64015c-0.584,-0.65139 -1.72954,-2.9537 -3.43662,-6.90694c-0.08985,-0.22462 -0.17969,-0.52785 -0.26954,-0.90969c-0.11231,-0.44923 -0.20215,-0.75246 -0.26954,-0.90969c-0.24708,-0.69631 -0.67385,-1.15677 -1.28031,-1.38139c-1.34769,1.68462 -2.05523,2.57185 -2.12262,2.6617c-2.53816,3.88585 -5.32339,7.09786 -8.35571,9.63602c-0.74123,0.62892 -1.25785,1.022 -1.54985,1.17923c-1.77446,0.96585 -3.15585,0.51662 -4.14416,-1.34769c-2.2237,-4.35755 -3.91955,-9.09694 -5.08755,-14.21818c-0.40431,-1.70708 -1.43754,-6.64863 -3.0997,-14.82464c-0.02246,-0.08985 -0.17969,-1.13431 -0.47169,-3.13339z" data-paper-data="{&quot;glyphName&quot;:&quot;W&quot;,&quot;glyphIndex&quot;:7,&quot;word&quot;:1}" fill="#101820"></path><path d="M365.8301,294.5199c-0.20215,-0.74123 -0.31446,-1.13431 -0.33692,-1.17923c-0.22462,-0.44923 -0.44923,-0.69631 -0.67385,-0.74123c-0.33692,-0.06738 -0.61769,0.08985 -0.84231,0.47169c-0.47169,0.78616 -0.88723,1.62846 -1.24662,2.52693c-0.02246,0.06738 0.04492,0.20215 0.20215,0.40431c0.15723,0.17969 0.25831,0.26954 0.30323,0.26954c0.85354,-0.20215 1.50493,-0.44923 1.95416,-0.74123c0.04492,-0.02246 0.25831,-0.35939 0.64015,-1.01077zM349.21976,316.95902c0.17969,-3.48154 0.95462,-6.85078 2.32477,-10.10771c4.60462,-10.93879 7.74924,-18.37357 9.43386,-22.30435c1.12308,-2.60554 3.30185,-5.22232 6.53632,-7.85032c1.25785,-0.98831 2.31354,-0.70754 3.16708,0.84231c1.07816,1.95416 2.8077,6.10955 5.18862,12.46618c0.31446,0.876 0.50539,1.43754 0.57277,1.68462c0.26954,1.25785 1.04446,1.81939 2.32477,1.68462c0.876,-0.08985 3.3917,0.51662 7.54709,1.81939c0.20215,0.06738 0.51662,0.23585 0.94339,0.50539c0.89846,0.584 1.07816,1.30277 0.53908,2.15631c-1.23539,1.95416 -2.83016,3.31308 -4.78432,4.07678c-0.15723,0.06738 -0.38185,0.13477 -0.67385,0.20215c-0.33692,0.06738 -0.57277,0.12354 -0.70754,0.16846c-0.60646,0.20215 -0.97708,0.44923 -1.11185,0.74123c-0.15723,0.31446 -0.11231,0.78616 0.13477,1.41508c0.26954,0.71877 0.65139,1.65093 1.14554,2.79647c0.60646,1.39262 0.99954,2.32477 1.17923,2.79647c1.07816,2.628 1.80816,4.50355 2.19,5.62663c0.584,1.70708 0.10108,3.17831 -1.44877,4.4137c-0.62892,0.51662 -0.99954,0.79739 -1.11185,0.84231c-2.24616,0.89846 -3.58262,1.34769 -4.00939,1.34769c-0.56154,0 -1.04446,-0.34815 -1.44877,-1.04446c-0.04492,-0.08985 -0.19092,-0.40431 -0.438,-0.94339c-0.20215,-0.38185 -0.37062,-0.66262 -0.50539,-0.84231c-1.30277,-1.70708 -2.63924,-4.22278 -4.00939,-7.54709c-0.33692,-0.85354 -0.81985,-2.06647 -1.44877,-3.63878c-0.65139,-1.66216 -1.13431,-2.86385 -1.44877,-3.60508c-0.31446,-0.78616 -0.65139,-1.28031 -1.01077,-1.48246c-0.35939,-0.22462 -0.92092,-0.25831 -1.68462,-0.10108c-0.78616,0.13477 -1.88677,0.35939 -3.30185,0.67385c-1.52739,0.33692 -2.63924,0.57277 -3.33554,0.70754c-1.9317,0.38185 -3.22324,1.62846 -3.87462,3.73985c-0.04492,0.15723 -0.57277,1.98785 -1.58354,5.49186c-0.40431,1.41508 -0.62892,2.20123 -0.67385,2.35847c-0.42677,1.168 -1.25785,1.96539 -2.49324,2.39216c-1.61723,0.56154 -2.32477,0.03369 -2.12262,-1.58354c0,-0.02246 0,0.01123 0,0.10108z" data-paper-data="{&quot;glyphName&quot;:&quot;A&quot;,&quot;glyphIndex&quot;:8,&quot;word&quot;:1}" fill="#101820"></path><path d="M400.93754,310.38901c6.0197,-0.94339 9.38894,-1.46 10.10771,-1.54985c1.48246,-0.17969 2.96493,-0.15723 4.44739,0.06738c0.67385,0.08985 1.168,0.438 1.48246,1.04446c0.31446,0.62892 0.30323,1.21293 -0.03369,1.752c-1.81939,2.98739 -3.36924,5.09878 -4.64955,6.33417c-2.044,1.9317 -4.44739,3.00985 -7.21017,3.23447c-1.07816,0.06738 -2.628,0.22462 -4.64955,0.47169c-2.13385,0.24708 -3.69493,0.40431 -4.68324,0.47169c-3.21201,0.26954 -5.55924,-0.37062 -7.0417,-1.92046c-1.48246,-1.57231 -1.99908,-3.96447 -1.54985,-7.17647c0.35939,-2.69539 1.07816,-6.58124 2.15631,-11.65756c0.33692,-1.54985 0.79739,-3.54893 1.38139,-5.99724c0.76369,-3.27939 1.23539,-5.26724 1.41508,-5.96355c0.71877,-3.18954 1.08939,-5.06509 1.11185,-5.62663c0.02246,-1.81939 0.59523,-3.70616 1.71831,-5.66032c0.38185,-0.60646 0.92092,-1.41508 1.61723,-2.42585c0.80862,-1.19046 1.35893,-2.01031 1.65093,-2.45954c0.04492,-0.06738 0.24708,-0.23585 0.60646,-0.50539c0.49415,-0.35939 1.022,-0.42677 1.58354,-0.20215c0.56154,0.22462 0.876,0.61769 0.94339,1.17923c0.04492,0.49415 0.04492,0.89846 0,1.21293c-0.80862,5.63786 -1.29154,8.88355 -1.44877,9.73709c-0.33692,1.70708 -0.89846,4.36878 -1.68462,7.98509c-0.76369,3.50401 -1.32523,6.17693 -1.68462,8.01878c-0.33692,1.84185 -0.53908,4.14416 -0.60646,6.90694c-0.02246,1.59477 0.81985,2.44831 2.52693,2.56062c0.08985,0 0.90969,0 2.45954,0c0,0.04492 0.01123,0.10108 0.03369,0.16846z" data-paper-data="{&quot;glyphName&quot;:&quot;L&quot;,&quot;glyphIndex&quot;:9,&quot;word&quot;:1}" fill="#101820"></path><path d="M430.95744,310.38901c6.0197,-0.94339 9.38894,-1.46 10.10771,-1.54985c1.48246,-0.17969 2.96493,-0.15723 4.44739,0.06738c0.67385,0.08985 1.168,0.438 1.48246,1.04446c0.31446,0.62892 0.30323,1.21293 -0.03369,1.752c-1.81939,2.98739 -3.36924,5.09878 -4.64955,6.33417c-2.044,1.9317 -4.44739,3.00985 -7.21017,3.23447c-1.07816,0.06738 -2.628,0.22462 -4.64955,0.47169c-2.13385,0.24708 -3.69493,0.40431 -4.68324,0.47169c-3.21201,0.26954 -5.55924,-0.37062 -7.0417,-1.92046c-1.48246,-1.57231 -1.99908,-3.96447 -1.54985,-7.17647c0.35939,-2.69539 1.07816,-6.58124 2.15631,-11.65756c0.33692,-1.54985 0.79739,-3.54893 1.38139,-5.99724c0.76369,-3.27939 1.23539,-5.26724 1.41508,-5.96355c0.71877,-3.18954 1.08939,-5.06509 1.11185,-5.62663c0.02246,-1.81939 0.59523,-3.70616 1.71831,-5.66032c0.38185,-0.60646 0.92092,-1.41508 1.61723,-2.42585c0.80862,-1.19046 1.35893,-2.01031 1.65093,-2.45954c0.04492,-0.06738 0.24708,-0.23585 0.60646,-0.50539c0.49415,-0.35939 1.022,-0.42677 1.58354,-0.20215c0.56154,0.22462 0.876,0.61769 0.94339,1.17923c0.04492,0.49415 0.04492,0.89846 0,1.21293c-0.80862,5.63786 -1.29154,8.88355 -1.44877,9.73709c-0.33692,1.70708 -0.89846,4.36878 -1.68462,7.98509c-0.76369,3.50401 -1.32523,6.17693 -1.68462,8.01878c-0.33692,1.84185 -0.53908,4.14416 -0.60646,6.90694c-0.02246,1.59477 0.81985,2.44831 2.52693,2.56062c0.08985,0 0.90969,0 2.45954,0c0,0.04492 0.01123,0.10108 0.03369,0.16846z" data-paper-data="{&quot;glyphName&quot;:&quot;L&quot;,&quot;glyphIndex&quot;:10,&quot;word&quot;:1}" fill="#101820"></path><path d="M462.72935,294.5199c-0.20215,-0.74123 -0.31446,-1.13431 -0.33692,-1.17923c-0.22462,-0.44923 -0.44923,-0.69631 -0.67385,-0.74123c-0.33692,-0.06738 -0.61769,0.08985 -0.84231,0.47169c-0.47169,0.78616 -0.88723,1.62846 -1.24662,2.52693c-0.02246,0.06738 0.04492,0.20215 0.20215,0.40431c0.15723,0.17969 0.25831,0.26954 0.30323,0.26954c0.85354,-0.20215 1.50493,-0.44923 1.95416,-0.74123c0.04492,-0.02246 0.25831,-0.35939 0.64015,-1.01077zM446.11901,316.95902c0.17969,-3.48154 0.95462,-6.85078 2.32477,-10.10771c4.60462,-10.93879 7.74924,-18.37357 9.43386,-22.30435c1.12308,-2.60554 3.30185,-5.22232 6.53632,-7.85032c1.25785,-0.98831 2.31354,-0.70754 3.16708,0.84231c1.07816,1.95416 2.8077,6.10955 5.18862,12.46618c0.31446,0.876 0.50539,1.43754 0.57277,1.68462c0.26954,1.25785 1.04446,1.81939 2.32477,1.68462c0.876,-0.08985 3.3917,0.51662 7.54709,1.81939c0.20215,0.06738 0.51662,0.23585 0.94339,0.50539c0.89846,0.584 1.07816,1.30277 0.53908,2.15631c-1.23539,1.95416 -2.83016,3.31308 -4.78432,4.07678c-0.15723,0.06738 -0.38185,0.13477 -0.67385,0.20215c-0.33692,0.06738 -0.57277,0.12354 -0.70754,0.16846c-0.60646,0.20215 -0.97708,0.44923 -1.11185,0.74123c-0.15723,0.31446 -0.11231,0.78616 0.13477,1.41508c0.26954,0.71877 0.65139,1.65093 1.14554,2.79647c0.60646,1.39262 0.99954,2.32477 1.17923,2.79647c1.07816,2.628 1.80816,4.50355 2.19,5.62663c0.584,1.70708 0.10108,3.17831 -1.44877,4.4137c-0.62892,0.51662 -0.99954,0.79739 -1.11185,0.84231c-2.24616,0.89846 -3.58262,1.34769 -4.00939,1.34769c-0.56154,0 -1.04446,-0.34815 -1.44877,-1.04446c-0.04492,-0.08985 -0.19092,-0.40431 -0.438,-0.94339c-0.20215,-0.38185 -0.37062,-0.66262 -0.50539,-0.84231c-1.30277,-1.70708 -2.63924,-4.22278 -4.00939,-7.54709c-0.33692,-0.85354 -0.81985,-2.06647 -1.44877,-3.63878c-0.65139,-1.66216 -1.13431,-2.86385 -1.44877,-3.60508c-0.31446,-0.78616 -0.65139,-1.28031 -1.01077,-1.48246c-0.35939,-0.22462 -0.92092,-0.25831 -1.68462,-0.10108c-0.78616,0.13477 -1.88677,0.35939 -3.30185,0.67385c-1.52739,0.33692 -2.63924,0.57277 -3.33554,0.70754c-1.9317,0.38185 -3.22324,1.62846 -3.87462,3.73985c-0.04492,0.15723 -0.57277,1.98785 -1.58354,5.49186c-0.40431,1.41508 -0.62892,2.20123 -0.67385,2.35847c-0.42677,1.168 -1.25785,1.96539 -2.49324,2.39216c-1.61723,0.56154 -2.32477,0.03369 -2.12262,-1.58354c0,-0.02246 0,0.01123 0,0.10108z" data-paper-data="{&quot;glyphName&quot;:&quot;A&quot;,&quot;glyphIndex&quot;:11,&quot;lastGlyphOfWord&quot;:true,&quot;word&quot;:1}" fill="#101820"></path></g><g data-paper-data="{&quot;isIcon&quot;:&quot;true&quot;,&quot;iconType&quot;:&quot;icon&quot;,&quot;rawIconId&quot;:&quot;134404&quot;,&quot;selectedEffects&quot;:{&quot;container&quot;:&quot;&quot;,&quot;transformation&quot;:&quot;&quot;,&quot;pattern&quot;:&quot;&quot;},&quot;combineTerms&quot;:&quot;parking&quot;,&quot;isDetailed&quot;:false,&quot;fillRule&quot;:&quot;evenodd&quot;,&quot;bounds&quot;:{&quot;x&quot;:182.56208297365117,&quot;y&quot;:147.70966116463737,&quot;width&quot;:184.87583405269766,&quot;height&quot;:98.7358787016046},&quot;iconStyle&quot;:&quot;standalone&quot;,&quot;suitableAsStandaloneIcon&quot;:true}" fill-rule="evenodd" fill="#101820"><path d="M182.56208,147.70966v4.38786h4.30421v-0.04183h0.06971v-4.34603zM247.10331,147.70966h-4.38388v0.01195h-0.00797v4.37591h4.40977v-4.37591h-0.01792zM307.27061,147.70966h-4.38388v0.01195h-0.00797v4.37591h4.40977v-4.37591h-0.01792zM363.064,147.70966v4.34603h0.06971v0.04183h4.30421v-4.38786zM191.1705,147.7216h4.30222v4.37591h-4.30222zM199.77892,147.7216h4.30421v4.37591h-4.30421zM212.69155,147.7216h-4.41177v4.37591h4.41177zM221.29797,147.7216h-4.40977v4.37591h4.40977zM229.9044,147.7216h-4.40778v4.37591h4.40778zM238.51481,147.7216h-4.40778v4.37591h4.40778zM255.72965,147.7216h-4.40977v4.37591h4.40977zM264.33608,147.7216h-4.40579v4.37591h4.40579zM272.94649,147.7216h-4.49941v4.37591h4.49941zM281.5549,147.7216h-4.49941v4.37591h4.49941zM290.07171,147.7216h-4.40778v4.37591h4.40778zM298.68211,147.7216h-4.40778v4.37591h4.40778zM315.89696,147.7216h-4.40977v4.37591h4.40977zM324.50338,147.7216h-4.40579v4.37591h4.40579zM333.1138,147.7216h-4.41177v4.37591h4.41177zM341.72221,147.7216h-4.41177v4.37591h4.41177zM345.91886,147.7216h4.30222v4.37591h-4.30222zM354.52928,147.7216h4.30222v4.37591h-4.30222zM182.56208,156.29019v4.34603h4.37392v-4.34603zM247.10331,156.29019h-4.38388v4.34603h4.38388zM307.27061,156.29019h-4.38388v4.34603h4.38388zM363.064,156.29019v4.34603h4.37392v-4.34603zM208.17023,162.84709c-3.8481,0.35652 -6.20037,2.74664 -7.62448,5.98725c-1.21199,2.758 -1.16021,6.44496 -1.11917,9.37047c0.00717,0.51188 0.01394,1.00046 0.01375,1.45678c0.00199,3.06732 0.96202,5.09693 0.96202,5.09693c0,0 -0.19719,3.11313 -0.3406,6.91542c-0.08764,0.03585 -0.68517,0.33462 -0.75886,1.54162c-0.06772,1.10941 0.48798,1.61532 0.6533,1.7428c-0.00797,0.25694 -0.01394,0.51387 -0.01992,0.77281c-0.09382,4.74698 0.12389,13.90691 0.17209,15.93792v0.0014c0.00597,0.25355 0.00936,0.39537 0.00916,0.40313c-1.24685,-0.63936 -3.27845,-0.81662 -3.31231,-0.81464c-0.14141,1.31855 2.56739,3.06334 2.60125,2.99363c-0.57164,4.80813 -0.53579,8.33356 -0.39238,10.40101c0.14141,2.06347 0.25494,5.16266 3.35015,7.94317c3.52344,3.16293 9.65808,3.66485 12.45851,3.66685c0.00199,0.00199 0.00597,0 0.00597,0h0.00597c2.80441,0 8.93705,-0.50392 12.46049,-3.66883c3.08923,-2.7805 3.20476,-5.8777 3.35015,-7.94118c0.14141,-2.06944 0.17727,-5.59487 -0.39238,-10.39902c0.03784,0.06971 2.74067,-1.67706 2.59925,-2.99761c-0.03585,0.00199 -2.06546,0.17926 -3.31031,0.81662c-0.0002,-0.00776 0.00319,-0.14798 0.00916,-0.39835c0.0482,-2.01806 0.2675,-11.19413 0.1701,-15.94609c-0.00797,-0.25296 -0.01195,-0.51188 -0.01792,-0.76484c0.15934,-0.1215 0.725,-0.62542 0.65529,-1.74877c-0.07369,-1.24485 -0.70708,-1.52768 -0.75886,-1.54561c-0.1454,-3.79631 -0.34258,-6.91144 -0.34258,-6.91144c0,0 0.96003,-2.0316 0.96003,-5.09693c-0.0004,-0.45532 0.00657,-0.9431 0.01375,-1.45439c0.04103,-2.92491 0.09282,-6.61426 -1.12117,-9.37286c-1.42212,-3.24061 -3.77241,-5.63073 -7.6205,-5.98725c-3.83615,-0.35454 -4.45558,-0.35454 -6.65051,-0.35454c-0.00398,0.00199 -0.00597,0 -0.00597,0h-0.01195c-2.19493,0.00199 -2.81436,0.00398 -6.65051,0.35454zM347.84491,235.45696l0.37246,-0.29279c2.07941,-1.67308 3.72261,-2.99163 3.7246,-7.29585l-0.00199,-15.30474c0,-0.20316 -0.00996,-0.80866 -0.01195,-1.14327c1.40818,0.45213 2.66499,0.241 3.388,-0.57562c0.62542,-0.70907 0.70509,-1.72288 0.20316,-2.7108c-0.11552,-0.22108 -0.5079,-0.18524 -2.00771,0.08764c-0.56566,0.10357 -1.32054,0.23702 -1.5715,0.2171c0.00159,-1.86908 -0.01613,-4.46315 -0.03565,-7.30341v-0.00897c-0.00478,-0.68617 -0.00956,-1.38667 -0.01414,-2.09474l-0.00438,-0.6282c-0.05896,-8.63352 -0.13046,-19.08372 0.05418,-22.32492c0.23105,-4.03731 -0.40832,-6.7501 -1.94994,-8.29173c-1.26079,-1.26079 -4.85792,-3.37206 -14.82472,-3.37406c-9.96481,0 -13.56195,2.11526 -14.82074,3.37206c-1.54561,1.54561 -2.18895,4.2584 -1.95193,8.2977c0.18922,3.3143 0.11353,14.2013 0.0478,22.95113c-0.02589,3.64095 -0.0498,7.08272 -0.0478,9.40712c-0.22965,0.01832 -0.8951,-0.09879 -1.44264,-0.1954c-0.04581,-0.00797 -0.09082,-0.01594 -0.13484,-0.0237c-1.49382,-0.27486 -1.89019,-0.31071 -2.00172,-0.08564c-0.2191,0.42823 -0.32864,0.8704 -0.32864,1.2827c0,0.53379 0.17926,1.03174 0.5318,1.4281c0.72301,0.81662 1.97583,1.02775 3.386,0.57363c-0.00398,0.3386 -0.01195,0.94211 -0.01394,1.14527l0.00199,15.30474c0.00199,4.3062 1.6452,5.62276 3.7246,7.29585l0.36848,0.2908c3.37007,2.73469 11.15788,2.87013 12.68557,2.87213c1.52171,-0.00398 9.30554,-0.14141 12.6756,-2.87213zM182.56208,164.87272v4.34603h4.37392v-4.34603zM247.10331,164.87272h-4.38388v4.34603h4.38388zM307.27061,164.87272h-4.38388v4.34603h4.38388zM363.064,164.87272v4.34603h4.37392v-4.34603zM205.94543,165.22326c0.18922,0.34258 -0.39636,1.02775 -1.3066,1.52171c-0.90825,0.49794 -1.80056,0.62143 -1.98977,0.27685c-0.18524,-0.34657 0.39835,-1.02775 1.30859,-1.5257c0.91024,-0.49396 1.80056,-0.61944 1.98778,-0.27288zM225.71969,165.49813c0.91024,0.49794 1.49382,1.17713 1.3066,1.5237c-0.18922,0.34457 -1.07755,0.22108 -1.98778,-0.27685c-0.91024,-0.49196 -1.49582,-1.17913 -1.3066,-1.5237c0.18524,-0.34258 1.07755,-0.2191 1.98778,0.27685zM322.71677,220.43904c-2.57734,-1.48187 -2.64108,-4.29425 -2.69088,-6.55889l-0.00597,-0.1693c-0.00597,-0.30674 -0.00797,-0.73496 -0.00996,-1.26676c0,-3.48958 0.14739,-11.30527 0.33661,-16.33648c0.21511,-5.63271 0.60351,-18.90586 0.54376,-21.56486c-0.05378,-2.55743 -0.08366,-4.10503 2.90997,-5.96734c2.93188,-1.82047 9.44496,-2.42198 11.36104,-2.42198c1.91408,0 8.42915,0.59952 11.36104,2.42c2.99124,1.86549 2.95977,3.4113 2.90818,5.95817l-0.0002,0.01116c-0.05178,2.65702 0.33063,15.93413 0.54574,21.56486c0.2191,5.79804 0.38242,15.29279 0.32665,17.60523l-0.00199,0.16731c-0.05178,2.26265 -0.11552,5.07701 -2.69287,6.55889c-2.81636,1.61731 -7.46913,2.58333 -12.44855,2.58333c-4.97345,-0.00199 -9.6282,-0.968 -12.44257,-2.58333zM212.62183,167.40824v-0.46209h4.43367l0.00199,0.46209zM224.82738,170.94363l0.00996,0.00996l0.00398,0.01394c0,0 0.11154,2.76457 0.22108,5.51919c0.05378,1.38029 0.11353,2.76059 0.14739,3.79631c0.03585,0.92617 0.0498,1.36635 0.0498,1.57947l0.0004,0.00837c0.00179,0.05159 0.00319,0.09063 -0.00438,0.11512l0.00398,0.00797l-0.00398,0.00199c-0.00398,0.06175 -0.01594,0.06374 -0.03585,0.06772l-0.04382,0.01195l-0.00797,-0.02988c-2.47378,-1.32054 -10.24964,-1.33448 -10.3313,-1.33249c-0.07967,0 -7.85553,0.01195 -10.3313,1.33448l-0.00996,0.0239l-0.04183,-0.00597c-0.01792,-0.00597 -0.03187,-0.00797 -0.03983,-0.06971h-0.00398l0.00398,-0.00996c-0.00797,-0.14141 0.00398,-0.53977 0.04581,-1.70297c0.03983,-1.03572 0.09361,-2.41601 0.15138,-3.79432c0.11154,-2.76059 0.22108,-5.52118 0.22108,-5.52118l0.00597,-0.01594c0.04382,-0.1215 1.15324,-2.93985 9.43301,-2.95379h0.08764c2.50365,-0.01195 8.53273,0.24897 10.46873,2.94582zM339.89576,211.70116c3.41787,-0.52981 5.82791,-1.51972 7.15642,-2.94582c0.966,-1.0895 0.70309,-2.43195 0.69712,-2.45585c-0.00398,-0.28283 -0.38242,-28.72726 -0.44218,-30.55969c-0.12747,-4.44363 -4.21458,-6.69632 -12.1438,-6.69632c-7.92524,0 -12.01633,2.25268 -12.14978,6.69632c-0.05178,1.83044 -0.42823,30.27486 -0.42823,30.52782c-0.00797,0.01792 -0.04183,0.20714 -0.04581,0.49595c0.00398,0.50392 0.12349,1.29863 0.74094,1.98977c1.32452,1.4261 3.72859,2.42198 7.15044,2.9498c2.36085,0.36489 4.40678,0.37127 4.69758,0.37226c0.02032,0 0.03207,0 0.03486,0.0002c0.00259,-0.0002 0.01414,-0.0002 0.03446,-0.0002c0.2894,-0.001 2.33873,-0.00737 4.69798,-0.37425zM182.56208,173.45524v4.34006h4.37392v-4.34006zM247.10331,173.45524h-4.38388v4.34006h4.38388zM307.27061,173.45524h-4.38388v4.34006h4.38388zM363.064,173.45524v4.34006h4.37392v-4.34006zM334.5877,175.52668c0.00199,-0.54973 0.25694,-1.00584 0.57562,-1.00584c0.31868,0.00199 0.57562,0.45612 0.57762,1.00783c-0.00199,0.5557 -0.25893,1.00783 -0.57762,1.00783c-0.31868,0 -0.57562,-0.45412 -0.57562,-1.00983zM201.03573,184.82824l0.99588,-8.15827c0,0 0.5796,4.23649 0.86442,7.40937c0.28482,3.1689 0.06971,15.81663 -0.28682,18.7724c-0.32466,2.74466 -1.57548,12.6776 -1.57548,12.6776c-0.29279,-7.30182 0.00199,-30.7011 0.00199,-30.7011zM228.64162,184.82624c0,0 0.29478,23.40127 0,30.70309c0,0 -1.24485,-9.93493 -1.57748,-12.6776c-0.35852,-2.95379 -0.56566,-15.60151 -0.28283,-18.7744c0.28084,-3.1689 0.86442,-7.40738 0.86442,-7.40738zM289.37459,191.72373c0,-4.07715 -1.10941,-7.1146 -3.29837,-9.03266c-2.20887,-1.934 -5.22441,-2.91396 -8.97091,-2.91396h-16.34245v38.21006h7.24207v-14.05789h8.57256c4.12695,0 7.33368,-0.93016 9.52264,-2.76258c2.17302,-1.81052 3.27447,-4.98937 3.27447,-9.44297zM182.56208,182.03577v4.34205h4.37392v-4.34205zM247.10331,182.03577h-4.38388v4.34205h4.38388zM307.27061,182.03577h-4.38388v4.34205h4.38388zM363.064,182.03577v4.34205h4.37392v-4.34205zM280.43752,196.55376c-1.11141,1.00783 -2.67295,1.51773 -4.64082,1.51773h-7.79378v-12.38282h7.79378c1.96388,0 3.52144,0.46607 4.63086,1.40021c1.12933,0.94609 1.70495,2.52556 1.70495,4.68463c0.00199,2.15509 -0.56765,3.76245 -1.695,4.78024zM182.56208,190.6183v4.34205h4.37392v-4.34205zM247.10331,190.6183h-4.38388v4.34205h4.38388zM307.27061,190.6183h-4.38388v4.34205h4.38388zM363.064,190.6183v4.34205h4.37392v-4.34205zM182.56208,199.19883v4.34205h4.37392v-4.34205zM247.10331,199.19883h-4.38388v4.34205h4.38388zM307.27061,199.19883h-4.38388v4.34205h4.38388zM363.064,199.19883v4.34205h4.37392v-4.34205zM228.02417,217.98916l-0.03187,0.06175c-1.22294,2.42797 -3.51547,4.19665 -6.80587,5.24631c-2.84424,0.90426 -5.58293,0.97995 -6.35174,0.97995c-0.77281,0 -3.5095,-0.07369 -6.35573,-0.97796c-3.2884,-1.04966 -5.57894,-2.81835 -6.80387,-5.24831l-0.02789,-0.05975l0.02988,-0.00996c0.09959,-0.50193 1.03372,-7.4512 1.52768,-11.14792l0.00797,-0.06971l0.06175,0.0239c0.00996,0.00996 1.12734,0.4362 3.10318,0.85845c1.82247,0.38441 4.77227,0.8485 8.45904,0.85048c3.69074,0 6.64056,-0.46209 8.46301,-0.85048c1.97385,-0.42624 3.08724,-0.8485 3.09919,-0.85845l0.05975,-0.02191l0.01195,0.06573c0.48998,3.69672 1.4261,10.64998 1.52171,11.14792zM182.56208,207.78136v4.34205h4.37392v-4.34205zM247.10331,207.78136h-4.38388v4.34205h4.38388zM307.27061,207.78136h-4.38388v4.34205h4.38388zM363.064,207.78136v4.34205h4.37392v-4.34205zM182.56208,216.3599v4.34405h4.37392v-4.34405zM247.10331,216.3599h-4.38388v4.34405h4.38388zM307.27061,216.3599h-4.38388v4.34405h4.38388zM363.064,216.3599v4.34405h4.37392v-4.34405zM328.33754,236.52853c-1.38029,-4.14287 -2.54747,-13.49223 -2.54747,-13.49223c0.91562,0.26988 2.57914,0.55092 3.03067,0.6274c0.07429,0.01254 0.11572,0.01952 0.11572,0.01992h-0.0014c0.47006,3.82618 2.0336,13.16558 2.19095,13.18152c-0.12947,-0.00996 -2.58333,-0.30674 -2.78847,-0.33661zM341.9911,236.53053c-0.20714,0.03187 -2.66299,0.32466 -2.79246,0.33462c0.15735,-0.01594 1.72089,-9.35732 2.19493,-13.18152h-0.00119c-0.0006,-0.00319 2.07762,-0.33303 3.1462,-0.64732c-0.0002,0 -0.00299,0.02231 -0.00857,0.06533c-0.10796,0.83615 -1.22434,9.48699 -2.53891,13.42889zM182.56208,224.94043v4.34603h4.37392v-4.34603zM247.10331,224.94043h-4.38388v4.34603h4.38388zM307.27061,224.94043h-4.38388v4.34603h4.38388zM363.064,224.94043v4.34603h4.37392v-4.34603zM228.5739,229.29443c0.26889,0.37446 -0.31271,1.25482 -1.3046,1.96786c-0.98792,0.71106 -2.01566,0.98394 -2.28257,0.61148c-0.27088,-0.37843 0.3147,-1.2588 1.3066,-1.97185c0.98991,-0.71106 2.01368,-0.98592 2.28057,-0.60749zM203.38601,229.89993c0.98792,0.71306 1.5715,1.5954 1.30262,1.96986c-0.27088,0.37446 -1.29066,0.10158 -2.28257,-0.61148c-0.9919,-0.70907 -1.5735,-1.59342 -1.3046,-1.96388c0.27088,-0.37644 1.29266,-0.10357 2.28456,0.6055zM350.35253,231.70646c0,0 -0.71106,1.12933 -1.76272,1.96388c-1.04767,0.83654 -2.19493,1.46793 -2.19493,1.46793c-0.76086,-0.93414 -0.67521,-2.33435 0.63936,-3.40194c1.31457,-1.07157 2.56141,-0.96402 3.31828,-0.02988zM321.73483,233.66836c-1.04767,-0.83455 -1.76272,-1.9599 -1.76272,-1.9599c0.76086,-0.93812 2.00172,-1.0397 3.32028,0.02988c1.31457,1.06758 1.39823,2.4678 0.64135,3.40194c0,-0.00199 -1.14527,-0.63338 -2.19891,-1.47192zM182.56208,233.52694v4.34006h4.37392v-4.34006zM247.10331,233.52694h-4.38388v4.34006h4.38388zM307.27061,233.52694h-4.38388v4.34006h4.38388zM363.064,233.52694v4.34006h4.37392v-4.34006zM215.67521,234.04878c0,0.18722 -0.37843,0.34258 -0.84053,0.34258c-0.46408,-0.00199 -0.83853,-0.15536 -0.83853,-0.34258c0,-0.18722 0.37446,-0.33661 0.83853,-0.33462c0.46209,-0.00199 0.84053,0.14739 0.84053,0.33462zM182.56208,242.10349v4.34205h4.37392v-4.34205zM247.10331,242.10349h-4.38388v4.34205h4.38388zM307.27061,242.10349h-4.38388v4.34205h4.38388zM363.064,242.10349v4.34205h4.37392v-4.34205z" data-paper-data="{&quot;isPathIcon&quot;:true}" fill="#101820"></path></g></g></g></svg>