<svg width="142" height="40" viewBox="0 0 142 40" fill="none" xmlns="http://www.w3.org/2000/svg">
<path d="M60.6745 19.4345L60.6356 5.83035H58.0508L53.0368 14.2843L47.9449 5.83035H45.3407V19.4345H48.2947V11.4469L52.2788 17.9963H53.6975L57.701 11.272L57.7205 19.4345H60.6745ZM71.1511 8.97874L68.1971 16.0723L65.2625 8.97874H62.1335L66.6618 19.5122L66.6229 19.6094C66.2148 20.5422 65.7484 20.9115 64.9127 20.9115C64.3102 20.9115 63.6689 20.6589 63.2024 20.2507L62.0947 22.408C62.7749 23.0104 63.9409 23.3602 65.0098 23.3602C66.895 23.3602 68.3331 22.6023 69.3437 20.0758L74.0663 8.97874H71.1511ZM81.9518 19.6677C84.3229 19.6677 86.2857 18.8126 87.5684 17.2384L85.5472 15.3727C84.6338 16.4416 83.4872 16.9857 82.1268 16.9857C79.5808 16.9857 77.7734 15.1978 77.7734 12.6324C77.7734 10.0671 79.5808 8.2791 82.1268 8.2791C83.4872 8.2791 84.6338 8.82326 85.5472 9.87272L87.5684 8.00701C86.2857 6.45225 84.3229 5.59714 81.9713 5.59714C77.7346 5.59714 74.5862 8.53174 74.5862 12.6324C74.5862 16.7331 77.7346 19.6677 81.9518 19.6677ZM92.3765 10.3586V8.97874H89.4808V19.4345H92.5125V14.4981C92.5125 12.4964 93.6203 11.583 95.2917 11.583C95.5249 11.583 95.7192 11.6024 95.9719 11.6218V8.82326C94.3588 8.82326 93.115 9.34799 92.3765 10.3586ZM105.598 8.97874L102.644 16.0723L99.7096 8.97874H96.5807L101.109 19.5122L101.07 19.6094C100.662 20.5422 100.195 20.9115 99.3598 20.9115C98.7573 20.9115 98.116 20.6589 97.6496 20.2507L96.5418 22.408C97.222 23.0104 98.3881 23.3602 99.457 23.3602C101.342 23.3602 102.78 22.6023 103.791 20.0758L108.513 8.97874H105.598ZM115.931 8.82326C114.531 8.82326 113.404 9.27025 112.646 10.1837V8.97874H109.75V23.2048H112.782V18.3267C113.56 19.1818 114.628 19.59 115.931 19.59C118.865 19.59 121.139 17.491 121.139 14.2066C121.139 10.9222 118.865 8.82326 115.931 8.82326ZM115.406 17.1023C113.89 17.1023 112.743 16.014 112.743 14.2066C112.743 12.3992 113.89 11.3109 115.406 11.3109C116.922 11.3109 118.068 12.3992 118.068 14.2066C118.068 16.014 116.922 17.1023 115.406 17.1023ZM129.096 16.7914C128.766 17.044 128.319 17.1801 127.872 17.1801C127.055 17.1801 126.57 16.6942 126.57 15.8002V11.5441H129.174V9.21195H126.57V6.66603H123.538V9.21195H121.925V11.5441H123.538V15.8391C123.538 18.3267 124.976 19.59 127.444 19.59C128.377 19.59 129.29 19.3762 129.912 18.9292L129.096 16.7914ZM136.267 19.59C139.59 19.59 142 17.355 142 14.2066C142 11.0582 139.59 8.82326 136.267 8.82326C132.944 8.82326 130.514 11.0582 130.514 14.2066C130.514 17.355 132.944 19.59 136.267 19.59ZM136.267 17.1023C134.751 17.1023 133.585 16.014 133.585 14.2066C133.585 12.3992 134.751 11.3109 136.267 11.3109C137.783 11.3109 138.929 12.3992 138.929 14.2066C138.929 16.014 137.783 17.1023 136.267 17.1023Z" fill="#182542"/>
<path d="M51.8171 31.1778C52.75 30.7988 53.3767 30.0263 53.3767 28.8602C53.3767 27.1986 52.0649 26.2365 49.7911 26.2365H45.3892V36.4396H50.0826C52.6334 36.4396 53.916 35.4485 53.916 33.714C53.916 32.3293 53.1289 31.4693 51.8171 31.1778ZM49.7182 27.1257C51.3507 27.1257 52.2981 27.7524 52.2981 28.9768C52.2981 30.2012 51.3507 30.8279 49.7182 30.8279H46.4678V27.1257H49.7182ZM50.068 35.5505H46.4678V31.7171H50.068C51.8608 31.7171 52.8374 32.3001 52.8374 33.6265C52.8374 34.9675 51.8608 35.5505 50.068 35.5505ZM57.1504 30.2741V28.7727H56.1593V36.4396H57.1941V32.5333C57.1941 30.7259 58.1707 29.7056 59.7741 29.7056C59.847 29.7056 59.9344 29.7202 60.0219 29.7202V28.7144C58.608 28.7144 57.6314 29.2537 57.1504 30.2741ZM64.5637 28.7144C63.3539 28.7144 62.217 29.0934 61.4445 29.7493L61.9109 30.5218C62.5377 29.968 63.4705 29.6181 64.4617 29.6181C65.8901 29.6181 66.6335 30.3324 66.6335 31.6442V32.1106H64.1993C61.9983 32.1106 61.2404 33.1018 61.2404 34.2824C61.2404 35.6088 62.3044 36.5125 64.039 36.5125C65.3071 36.5125 66.2108 36.0315 66.6772 35.2444V36.4396H67.6684V31.6879C67.6684 29.7056 66.546 28.7144 64.5637 28.7144ZM64.1993 35.6963C62.9749 35.6963 62.2607 35.1424 62.2607 34.2533C62.2607 33.4662 62.7417 32.8831 64.2285 32.8831H66.6335V34.1367C66.2253 35.1424 65.3654 35.6963 64.1993 35.6963ZM74.3854 28.7144C73.059 28.7144 72.0241 29.2537 71.4702 30.1866V28.7727H70.4791V36.4396H71.514V32.4167C71.514 30.6676 72.5488 29.6473 74.1959 29.6473C75.6535 29.6473 76.4989 30.4781 76.4989 32.096V36.4396H77.5338V31.994C77.5338 29.7931 76.2511 28.7144 74.3854 28.7144ZM86.3332 25.6244V30.2303C85.6919 29.2392 84.6424 28.7144 83.418 28.7144C81.2317 28.7144 79.5992 30.2886 79.5992 32.6062C79.5992 34.9238 81.2317 36.5125 83.418 36.5125C84.6861 36.5125 85.7502 35.9586 86.377 34.9238V36.4396H87.3681V25.6244H86.3332ZM83.5055 35.5942C81.873 35.5942 80.6486 34.399 80.6486 32.6062C80.6486 30.8134 81.873 29.6181 83.5055 29.6181C85.1234 29.6181 86.3478 30.8134 86.3478 32.6062C86.3478 34.399 85.1234 35.5942 83.5055 35.5942Z" fill="#182542"/>
<path d="M30.4262 26.1456H21.1171C18.6305 26.1456 16.4279 24.5871 15.5561 22.3265L16.7368 21.1382C17.1791 23.1871 19.013 24.6696 21.1171 24.6696H22.1998H25.0345H30.4262C31.4584 24.6696 32.2979 23.8298 32.2979 22.7976C32.2979 21.7653 31.4584 20.9258 30.4262 20.9258H27.5105V19.4495H30.4262C31.4584 19.4495 32.2979 18.61 32.2979 17.5778C32.2979 16.5455 31.4584 15.706 30.4262 15.706H26.8296V14.2297H30.4262C32.2721 14.2297 33.7739 15.7318 33.7739 17.5778C33.7739 18.632 33.2838 19.5736 32.5197 20.1875C33.2838 20.8017 33.7739 21.7433 33.7739 22.7976C33.7739 24.6434 32.2721 26.1456 30.4262 26.1456ZM6.53917 16.4675V25.4076H5.06317V13.4682L12.5809 19.2565L17.1548 15.7383C18.2468 14.7653 19.6525 14.2297 21.1171 14.2297H24.134V15.706H21.1171C20.008 15.706 18.9438 16.114 18.1204 16.855L18.0767 16.8914L12.5806 21.1188L6.53917 16.4675ZM19.6774 0C8.80984 0 0 8.80984 0 19.6774C0 30.545 8.80984 39.3548 19.6774 39.3548C30.545 39.3548 39.3548 30.545 39.3548 19.6774C39.3548 8.80984 30.545 0 19.6774 0Z" fill="#182542"/>
</svg>
