<svg xmlns:xlink="http://www.w3.org/1999/xlink" xmlns="http://www.w3.org/2000/svg" class="svg-standalone-icon" width="184.87583405269766" viewBox="182.56208297365117 147.70966116463737 184.87583405269766 98.7358787016046" height="98.7358787016046" ><g data-paper-data="{&quot;isIcon&quot;:&quot;true&quot;,&quot;iconType&quot;:&quot;icon&quot;,&quot;rawIconId&quot;:&quot;134404&quot;,&quot;selectedEffects&quot;:{&quot;container&quot;:&quot;&quot;,&quot;transformation&quot;:&quot;&quot;,&quot;pattern&quot;:&quot;&quot;},&quot;combineTerms&quot;:&quot;parking&quot;,&quot;isDetailed&quot;:false,&quot;fillRule&quot;:&quot;evenodd&quot;,&quot;bounds&quot;:{&quot;x&quot;:182.56208297365117,&quot;y&quot;:147.70966116463737,&quot;width&quot;:184.87583405269766,&quot;height&quot;:98.7358787016046},&quot;iconStyle&quot;:&quot;standalone&quot;,&quot;suitableAsStandaloneIcon&quot;:true}" fill-rule="evenodd"><path d="M182.56208,147.70966v4.38786h4.30421v-0.04183h0.06971v-4.34603zM247.10331,147.70966h-4.38388v0.01195h-0.00797v4.37591h4.40977v-4.37591h-0.01792zM307.27061,147.70966h-4.38388v0.01195h-0.00797v4.37591h4.40977v-4.37591h-0.01792zM363.064,147.70966v4.34603h0.06971v0.04183h4.30421v-4.38786zM191.1705,147.7216h4.30222v4.37591h-4.30222zM199.77892,147.7216h4.30421v4.37591h-4.30421zM212.69155,147.7216h-4.41177v4.37591h4.41177zM221.29797,147.7216h-4.40977v4.37591h4.40977zM229.9044,147.7216h-4.40778v4.37591h4.40778zM238.51481,147.7216h-4.40778v4.37591h4.40778zM255.72965,147.7216h-4.40977v4.37591h4.40977zM264.33608,147.7216h-4.40579v4.37591h4.40579zM272.94649,147.7216h-4.49941v4.37591h4.49941zM281.5549,147.7216h-4.49941v4.37591h4.49941zM290.07171,147.7216h-4.40778v4.37591h4.40778zM298.68211,147.7216h-4.40778v4.37591h4.40778zM315.89696,147.7216h-4.40977v4.37591h4.40977zM324.50338,147.7216h-4.40579v4.37591h4.40579zM333.1138,147.7216h-4.41177v4.37591h4.41177zM341.72221,147.7216h-4.41177v4.37591h4.41177zM345.91886,147.7216h4.30222v4.37591h-4.30222zM354.52928,147.7216h4.30222v4.37591h-4.30222zM182.56208,156.29019v4.34603h4.37392v-4.34603zM247.10331,156.29019h-4.38388v4.34603h4.38388zM307.27061,156.29019h-4.38388v4.34603h4.38388zM363.064,156.29019v4.34603h4.37392v-4.34603zM208.17023,162.84709c-3.8481,0.35652 -6.20037,2.74664 -7.62448,5.98725c-1.21199,2.758 -1.16021,6.44496 -1.11917,9.37047c0.00717,0.51188 0.01394,1.00046 0.01375,1.45678c0.00199,3.06732 0.96202,5.09693 0.96202,5.09693c0,0 -0.19719,3.11313 -0.3406,6.91542c-0.08764,0.03585 -0.68517,0.33462 -0.75886,1.54162c-0.06772,1.10941 0.48798,1.61532 0.6533,1.7428c-0.00797,0.25694 -0.01394,0.51387 -0.01992,0.77281c-0.09382,4.74698 0.12389,13.90691 0.17209,15.93792v0.0014c0.00597,0.25355 0.00936,0.39537 0.00916,0.40313c-1.24685,-0.63936 -3.27845,-0.81662 -3.31231,-0.81464c-0.14141,1.31855 2.56739,3.06334 2.60125,2.99363c-0.57164,4.80813 -0.53579,8.33356 -0.39238,10.40101c0.14141,2.06347 0.25494,5.16266 3.35015,7.94317c3.52344,3.16293 9.65808,3.66485 12.45851,3.66685c0.00199,0.00199 0.00597,0 0.00597,0h0.00597c2.80441,0 8.93705,-0.50392 12.46049,-3.66883c3.08923,-2.7805 3.20476,-5.8777 3.35015,-7.94118c0.14141,-2.06944 0.17727,-5.59487 -0.39238,-10.39902c0.03784,0.06971 2.74067,-1.67706 2.59925,-2.99761c-0.03585,0.00199 -2.06546,0.17926 -3.31031,0.81662c-0.0002,-0.00776 0.00319,-0.14798 0.00916,-0.39835c0.0482,-2.01806 0.2675,-11.19413 0.1701,-15.94609c-0.00797,-0.25296 -0.01195,-0.51188 -0.01792,-0.76484c0.15934,-0.1215 0.725,-0.62542 0.65529,-1.74877c-0.07369,-1.24485 -0.70708,-1.52768 -0.75886,-1.54561c-0.1454,-3.79631 -0.34258,-6.91144 -0.34258,-6.91144c0,0 0.96003,-2.0316 0.96003,-5.09693c-0.0004,-0.45532 0.00657,-0.9431 0.01375,-1.45439c0.04103,-2.92491 0.09282,-6.61426 -1.12117,-9.37286c-1.42212,-3.24061 -3.77241,-5.63073 -7.6205,-5.98725c-3.83615,-0.35454 -4.45558,-0.35454 -6.65051,-0.35454c-0.00398,0.00199 -0.00597,0 -0.00597,0h-0.01195c-2.19493,0.00199 -2.81436,0.00398 -6.65051,0.35454zM347.84491,235.45696l0.37246,-0.29279c2.07941,-1.67308 3.72261,-2.99163 3.7246,-7.29585l-0.00199,-15.30474c0,-0.20316 -0.00996,-0.80866 -0.01195,-1.14327c1.40818,0.45213 2.66499,0.241 3.388,-0.57562c0.62542,-0.70907 0.70509,-1.72288 0.20316,-2.7108c-0.11552,-0.22108 -0.5079,-0.18524 -2.00771,0.08764c-0.56566,0.10357 -1.32054,0.23702 -1.5715,0.2171c0.00159,-1.86908 -0.01613,-4.46315 -0.03565,-7.30341v-0.00897c-0.00478,-0.68617 -0.00956,-1.38667 -0.01414,-2.09474l-0.00438,-0.6282c-0.05896,-8.63352 -0.13046,-19.08372 0.05418,-22.32492c0.23105,-4.03731 -0.40832,-6.7501 -1.94994,-8.29173c-1.26079,-1.26079 -4.85792,-3.37206 -14.82472,-3.37406c-9.96481,0 -13.56195,2.11526 -14.82074,3.37206c-1.54561,1.54561 -2.18895,4.2584 -1.95193,8.2977c0.18922,3.3143 0.11353,14.2013 0.0478,22.95113c-0.02589,3.64095 -0.0498,7.08272 -0.0478,9.40712c-0.22965,0.01832 -0.8951,-0.09879 -1.44264,-0.1954c-0.04581,-0.00797 -0.09082,-0.01594 -0.13484,-0.0237c-1.49382,-0.27486 -1.89019,-0.31071 -2.00172,-0.08564c-0.2191,0.42823 -0.32864,0.8704 -0.32864,1.2827c0,0.53379 0.17926,1.03174 0.5318,1.4281c0.72301,0.81662 1.97583,1.02775 3.386,0.57363c-0.00398,0.3386 -0.01195,0.94211 -0.01394,1.14527l0.00199,15.30474c0.00199,4.3062 1.6452,5.62276 3.7246,7.29585l0.36848,0.2908c3.37007,2.73469 11.15788,2.87013 12.68557,2.87213c1.52171,-0.00398 9.30554,-0.14141 12.6756,-2.87213zM182.56208,164.87272v4.34603h4.37392v-4.34603zM247.10331,164.87272h-4.38388v4.34603h4.38388zM307.27061,164.87272h-4.38388v4.34603h4.38388zM363.064,164.87272v4.34603h4.37392v-4.34603zM205.94543,165.22326c0.18922,0.34258 -0.39636,1.02775 -1.3066,1.52171c-0.90825,0.49794 -1.80056,0.62143 -1.98977,0.27685c-0.18524,-0.34657 0.39835,-1.02775 1.30859,-1.5257c0.91024,-0.49396 1.80056,-0.61944 1.98778,-0.27288zM225.71969,165.49813c0.91024,0.49794 1.49382,1.17713 1.3066,1.5237c-0.18922,0.34457 -1.07755,0.22108 -1.98778,-0.27685c-0.91024,-0.49196 -1.49582,-1.17913 -1.3066,-1.5237c0.18524,-0.34258 1.07755,-0.2191 1.98778,0.27685zM322.71677,220.43904c-2.57734,-1.48187 -2.64108,-4.29425 -2.69088,-6.55889l-0.00597,-0.1693c-0.00597,-0.30674 -0.00797,-0.73496 -0.00996,-1.26676c0,-3.48958 0.14739,-11.30527 0.33661,-16.33648c0.21511,-5.63271 0.60351,-18.90586 0.54376,-21.56486c-0.05378,-2.55743 -0.08366,-4.10503 2.90997,-5.96734c2.93188,-1.82047 9.44496,-2.42198 11.36104,-2.42198c1.91408,0 8.42915,0.59952 11.36104,2.42c2.99124,1.86549 2.95977,3.4113 2.90818,5.95817l-0.0002,0.01116c-0.05178,2.65702 0.33063,15.93413 0.54574,21.56486c0.2191,5.79804 0.38242,15.29279 0.32665,17.60523l-0.00199,0.16731c-0.05178,2.26265 -0.11552,5.07701 -2.69287,6.55889c-2.81636,1.61731 -7.46913,2.58333 -12.44855,2.58333c-4.97345,-0.00199 -9.6282,-0.968 -12.44257,-2.58333zM212.62183,167.40824v-0.46209h4.43367l0.00199,0.46209zM224.82738,170.94363l0.00996,0.00996l0.00398,0.01394c0,0 0.11154,2.76457 0.22108,5.51919c0.05378,1.38029 0.11353,2.76059 0.14739,3.79631c0.03585,0.92617 0.0498,1.36635 0.0498,1.57947l0.0004,0.00837c0.00179,0.05159 0.00319,0.09063 -0.00438,0.11512l0.00398,0.00797l-0.00398,0.00199c-0.00398,0.06175 -0.01594,0.06374 -0.03585,0.06772l-0.04382,0.01195l-0.00797,-0.02988c-2.47378,-1.32054 -10.24964,-1.33448 -10.3313,-1.33249c-0.07967,0 -7.85553,0.01195 -10.3313,1.33448l-0.00996,0.0239l-0.04183,-0.00597c-0.01792,-0.00597 -0.03187,-0.00797 -0.03983,-0.06971h-0.00398l0.00398,-0.00996c-0.00797,-0.14141 0.00398,-0.53977 0.04581,-1.70297c0.03983,-1.03572 0.09361,-2.41601 0.15138,-3.79432c0.11154,-2.76059 0.22108,-5.52118 0.22108,-5.52118l0.00597,-0.01594c0.04382,-0.1215 1.15324,-2.93985 9.43301,-2.95379h0.08764c2.50365,-0.01195 8.53273,0.24897 10.46873,2.94582zM339.89576,211.70116c3.41787,-0.52981 5.82791,-1.51972 7.15642,-2.94582c0.966,-1.0895 0.70309,-2.43195 0.69712,-2.45585c-0.00398,-0.28283 -0.38242,-28.72726 -0.44218,-30.55969c-0.12747,-4.44363 -4.21458,-6.69632 -12.1438,-6.69632c-7.92524,0 -12.01633,2.25268 -12.14978,6.69632c-0.05178,1.83044 -0.42823,30.27486 -0.42823,30.52782c-0.00797,0.01792 -0.04183,0.20714 -0.04581,0.49595c0.00398,0.50392 0.12349,1.29863 0.74094,1.98977c1.32452,1.4261 3.72859,2.42198 7.15044,2.9498c2.36085,0.36489 4.40678,0.37127 4.69758,0.37226c0.02032,0 0.03207,0 0.03486,0.0002c0.00259,-0.0002 0.01414,-0.0002 0.03446,-0.0002c0.2894,-0.001 2.33873,-0.00737 4.69798,-0.37425zM182.56208,173.45524v4.34006h4.37392v-4.34006zM247.10331,173.45524h-4.38388v4.34006h4.38388zM307.27061,173.45524h-4.38388v4.34006h4.38388zM363.064,173.45524v4.34006h4.37392v-4.34006zM334.5877,175.52668c0.00199,-0.54973 0.25694,-1.00584 0.57562,-1.00584c0.31868,0.00199 0.57562,0.45612 0.57762,1.00783c-0.00199,0.5557 -0.25893,1.00783 -0.57762,1.00783c-0.31868,0 -0.57562,-0.45412 -0.57562,-1.00983zM201.03573,184.82824l0.99588,-8.15827c0,0 0.5796,4.23649 0.86442,7.40937c0.28482,3.1689 0.06971,15.81663 -0.28682,18.7724c-0.32466,2.74466 -1.57548,12.6776 -1.57548,12.6776c-0.29279,-7.30182 0.00199,-30.7011 0.00199,-30.7011zM228.64162,184.82624c0,0 0.29478,23.40127 0,30.70309c0,0 -1.24485,-9.93493 -1.57748,-12.6776c-0.35852,-2.95379 -0.56566,-15.60151 -0.28283,-18.7744c0.28084,-3.1689 0.86442,-7.40738 0.86442,-7.40738zM289.37459,191.72373c0,-4.07715 -1.10941,-7.1146 -3.29837,-9.03266c-2.20887,-1.934 -5.22441,-2.91396 -8.97091,-2.91396h-16.34245v38.21006h7.24207v-14.05789h8.57256c4.12695,0 7.33368,-0.93016 9.52264,-2.76258c2.17302,-1.81052 3.27447,-4.98937 3.27447,-9.44297zM182.56208,182.03577v4.34205h4.37392v-4.34205zM247.10331,182.03577h-4.38388v4.34205h4.38388zM307.27061,182.03577h-4.38388v4.34205h4.38388zM363.064,182.03577v4.34205h4.37392v-4.34205zM280.43752,196.55376c-1.11141,1.00783 -2.67295,1.51773 -4.64082,1.51773h-7.79378v-12.38282h7.79378c1.96388,0 3.52144,0.46607 4.63086,1.40021c1.12933,0.94609 1.70495,2.52556 1.70495,4.68463c0.00199,2.15509 -0.56765,3.76245 -1.695,4.78024zM182.56208,190.6183v4.34205h4.37392v-4.34205zM247.10331,190.6183h-4.38388v4.34205h4.38388zM307.27061,190.6183h-4.38388v4.34205h4.38388zM363.064,190.6183v4.34205h4.37392v-4.34205zM182.56208,199.19883v4.34205h4.37392v-4.34205zM247.10331,199.19883h-4.38388v4.34205h4.38388zM307.27061,199.19883h-4.38388v4.34205h4.38388zM363.064,199.19883v4.34205h4.37392v-4.34205zM228.02417,217.98916l-0.03187,0.06175c-1.22294,2.42797 -3.51547,4.19665 -6.80587,5.24631c-2.84424,0.90426 -5.58293,0.97995 -6.35174,0.97995c-0.77281,0 -3.5095,-0.07369 -6.35573,-0.97796c-3.2884,-1.04966 -5.57894,-2.81835 -6.80387,-5.24831l-0.02789,-0.05975l0.02988,-0.00996c0.09959,-0.50193 1.03372,-7.4512 1.52768,-11.14792l0.00797,-0.06971l0.06175,0.0239c0.00996,0.00996 1.12734,0.4362 3.10318,0.85845c1.82247,0.38441 4.77227,0.8485 8.45904,0.85048c3.69074,0 6.64056,-0.46209 8.46301,-0.85048c1.97385,-0.42624 3.08724,-0.8485 3.09919,-0.85845l0.05975,-0.02191l0.01195,0.06573c0.48998,3.69672 1.4261,10.64998 1.52171,11.14792zM182.56208,207.78136v4.34205h4.37392v-4.34205zM247.10331,207.78136h-4.38388v4.34205h4.38388zM307.27061,207.78136h-4.38388v4.34205h4.38388zM363.064,207.78136v4.34205h4.37392v-4.34205zM182.56208,216.3599v4.34405h4.37392v-4.34405zM247.10331,216.3599h-4.38388v4.34405h4.38388zM307.27061,216.3599h-4.38388v4.34405h4.38388zM363.064,216.3599v4.34405h4.37392v-4.34405zM328.33754,236.52853c-1.38029,-4.14287 -2.54747,-13.49223 -2.54747,-13.49223c0.91562,0.26988 2.57914,0.55092 3.03067,0.6274c0.07429,0.01254 0.11572,0.01952 0.11572,0.01992h-0.0014c0.47006,3.82618 2.0336,13.16558 2.19095,13.18152c-0.12947,-0.00996 -2.58333,-0.30674 -2.78847,-0.33661zM341.9911,236.53053c-0.20714,0.03187 -2.66299,0.32466 -2.79246,0.33462c0.15735,-0.01594 1.72089,-9.35732 2.19493,-13.18152h-0.00119c-0.0006,-0.00319 2.07762,-0.33303 3.1462,-0.64732c-0.0002,0 -0.00299,0.02231 -0.00857,0.06533c-0.10796,0.83615 -1.22434,9.48699 -2.53891,13.42889zM182.56208,224.94043v4.34603h4.37392v-4.34603zM247.10331,224.94043h-4.38388v4.34603h4.38388zM307.27061,224.94043h-4.38388v4.34603h4.38388zM363.064,224.94043v4.34603h4.37392v-4.34603zM228.5739,229.29443c0.26889,0.37446 -0.31271,1.25482 -1.3046,1.96786c-0.98792,0.71106 -2.01566,0.98394 -2.28257,0.61148c-0.27088,-0.37843 0.3147,-1.2588 1.3066,-1.97185c0.98991,-0.71106 2.01368,-0.98592 2.28057,-0.60749zM203.38601,229.89993c0.98792,0.71306 1.5715,1.5954 1.30262,1.96986c-0.27088,0.37446 -1.29066,0.10158 -2.28257,-0.61148c-0.9919,-0.70907 -1.5735,-1.59342 -1.3046,-1.96388c0.27088,-0.37644 1.29266,-0.10357 2.28456,0.6055zM350.35253,231.70646c0,0 -0.71106,1.12933 -1.76272,1.96388c-1.04767,0.83654 -2.19493,1.46793 -2.19493,1.46793c-0.76086,-0.93414 -0.67521,-2.33435 0.63936,-3.40194c1.31457,-1.07157 2.56141,-0.96402 3.31828,-0.02988zM321.73483,233.66836c-1.04767,-0.83455 -1.76272,-1.9599 -1.76272,-1.9599c0.76086,-0.93812 2.00172,-1.0397 3.32028,0.02988c1.31457,1.06758 1.39823,2.4678 0.64135,3.40194c0,-0.00199 -1.14527,-0.63338 -2.19891,-1.47192zM182.56208,233.52694v4.34006h4.37392v-4.34006zM247.10331,233.52694h-4.38388v4.34006h4.38388zM307.27061,233.52694h-4.38388v4.34006h4.38388zM363.064,233.52694v4.34006h4.37392v-4.34006zM215.67521,234.04878c0,0.18722 -0.37843,0.34258 -0.84053,0.34258c-0.46408,-0.00199 -0.83853,-0.15536 -0.83853,-0.34258c0,-0.18722 0.37446,-0.33661 0.83853,-0.33462c0.46209,-0.00199 0.84053,0.14739 0.84053,0.33462zM182.56208,242.10349v4.34205h4.37392v-4.34205zM247.10331,242.10349h-4.38388v4.34205h4.38388zM307.27061,242.10349h-4.38388v4.34205h4.38388zM363.064,242.10349v4.34205h4.37392v-4.34205z" data-paper-data="{&quot;isPathIcon&quot;:true}" style="fill: rgb(0, 0, 0);"></path></g></svg>